# xmcd CD database file
#
# Track frame offsets:
#	150
#	17705
#	32714
#	47726
#	60371
#	74290
#	88718
#	103990
#	120632
#	135969
#	150025
#	162795
#	174832
#	184534
#	202066
#	215044
#	228584
#	243190
#
# Disc length: 3524 seconds
#
# Revision: 2
# Processed by: cddbd v1.5.2PL0 Copyright (c) Steve Scherf et al.
# Submitted via: CDex 1.51
#
DISCID=e60dc212
DTITLE=Various Artist - Americana Motel
DYEAR=2001
DGENRE=Folk
TTITLE0=Last Train Home - Been Awhile
TTITLE1=Starling, Auldridge and Gaudrean - My Sally
TTITLE2=The Fieldhands - Field Hand Man
TTITLE3=Jumpin Jupiter - Buddy Love
TTITLE4=Karl Straub - Blue Train
TTITLE5=Little Pink - Cathode Ray Blue
TTITLE6=Kevin Johnson and the Linemen - Carolina
TTITLE7=The Graverobbers - It Wouldn't Be Easy
TTITLE8=Tom Clifford - Day Go By
TTITLE9=The  Hula Monsters - Things I'm Not
TTITLE10=The Grandsons - Real Real
TTITLE11=Ruthie and the Wranglers - Why Must You Leave Me?
TTITLE12=Kennedys - Tell Me How
TTITLE13=The Dell Swathmores - Love on the Rebound
TTITLE14=Bill and Louise Kirchen - I'll Never Be Free
TTITLE15=Lisa Moscatiello - The Middle of Nowhere
TTITLE16=Rhodes Tavern Troubadours - Then You Can Tell Me Goodnight
TTITLE17=Americana Motel - Don't Take Advice
EXTD=YEAR: 2001
EXTT0=last train home\n
EXTT1=
EXTT2=
EXTT3=
EXTT4=
EXTT5=
EXTT6=
EXTT7=
EXTT8=
EXTT9=
EXTT10=
EXTT11=
EXTT12=
EXTT13=
EXTT14=
EXTT15=
EXTT16=
EXTT17=
PLAYORDER=
